<?xml version="1.0" standalone="no"?>
<!DOCTYPE svg PUBLIC "-//W3C//DTD SVG 20010904//EN"
 "http://www.w3.org/TR/2001/REC-SVG-20010904/DTD/svg10.dtd">
<svg version="1.0" xmlns="http://www.w3.org/2000/svg"
 width="520.000000pt" height="480.000000pt" viewBox="0 0 520.000000 480.000000"
 preserveAspectRatio="xMidYMid meet">

<g transform="translate(0.000000,480.000000) scale(0.100000,-0.100000)"
fill="#000000" stroke="none">
<path d="M2410 4360 c-599 -66 -1113 -374 -1443 -865 -245 -365 -361 -805
-327 -1237 27 -340 137 -664 320 -939 69 -105 242 -315 281 -342 11 -8 38 -31
60 -52 69 -63 204 -161 304 -220 420 -247 921 -327 1415 -224 60 12 96 16 98
9 8 -22 58 -10 79 18 23 31 48 40 189 67 45 8 117 31 160 51 l77 35 32 -31
c17 -16 36 -30 43 -30 15 0 15 32 0 65 -10 23 -8 28 41 72 29 26 62 65 73 88
12 22 75 91 140 154 185 177 310 349 418 573 148 310 208 618 188 970 -51 920
-749 1684 -1666 1823 -124 19 -372 27 -482 15z m151 -126 c44 -7 56 -19 40
-38 -6 -6 -9 -25 -8 -41 1 -21 -3 -30 -16 -33 -33 -7 -67 7 -67 27 0 30 -11
51 -27 51 -11 0 -13 -11 -11 -47 3 -46 4 -48 43 -56 113 -25 118 -27 103 -45
-16 -19 -13 -112 3 -112 25 0 4 -23 -37 -40 -51 -22 -109 -25 -166 -9 -38 10
-47 22 -27 34 6 4 8 24 4 51 l-6 44 46 0 c42 0 45 -2 45 -27 0 -43 11 -73 26
-73 10 0 14 15 14 58 l0 59 -80 18 c-55 13 -77 22 -70 29 13 13 13 93 0 101
-16 10 -11 22 13 30 80 25 114 33 125 29 8 -2 31 -7 53 -10z m413 -29 c92 -21
163 -64 125 -77 -16 -5 -68 -240 -57 -255 11 -14 2 -19 -46 -27 -28 -5 -206
31 -206 41 0 3 7 11 16 17 21 16 77 260 68 299 -5 25 -3 28 12 23 11 -3 50
-12 88 -21z m-727 -57 c1 -47 -8 -58 -50 -58 -22 0 -30 6 -38 30 -12 32 -39
41 -39 14 0 -9 5 -33 11 -54 l11 -37 50 14 c27 8 52 13 55 10 11 -12 -20 -46
-52 -57 -19 -6 -35 -14 -35 -18 0 -27 35 -122 46 -122 21 0 24 14 12 53 -9 30
-8 40 6 62 26 39 58 30 71 -19 7 -22 17 -42 23 -44 42 -14 -23 -61 -125 -91
-89 -27 -107 -27 -94 -3 12 23 -14 121 -36 139 -8 6 -12 19 -9 30 8 25 -20
113 -41 129 -10 7 -16 15 -13 17 15 14 143 45 190 46 l55 1 2 -42z m-417 2 c0
-22 -35 -63 -65 -77 -16 -7 -38 -19 -47 -25 -9 -7 -21 -9 -25 -5 -13 14 21 61
52 72 16 5 38 18 47 28 20 19 38 22 38 7z m1525 -65 c48 -32 90 -76 77 -82
-21 -8 -64 -101 -49 -107 8 -3 5 -10 -9 -23 -32 -26 -74 -116 -67 -142 3 -11
2 -21 -1 -21 -6 0 -87 39 -94 45 -2 2 11 33 27 70 17 37 28 71 25 76 -13 22
-31 3 -61 -62 l-32 -70 -53 27 c-48 24 -51 28 -32 36 28 13 76 112 62 126 -8
8 -7 13 6 18 20 8 69 100 61 114 -13 21 7 27 62 18 32 -5 67 -15 78 -23z
m-1449 -21 c2 -27 94 -195 121 -220 l23 -21 -44 -46 c-44 -45 -80 -61 -151
-69 -24 -2 -29 1 -27 14 4 23 -94 207 -122 231 -21 17 -21 17 31 66 39 37 64
51 100 59 59 12 68 10 69 -14z m-288 -133 c-4 -27 152 -251 175 -251 31 0 17
-24 -33 -57 -27 -18 -52 -33 -55 -33 -3 0 -5 10 -5 23 0 28 -148 244 -172 250
-29 8 -21 23 30 56 55 36 64 38 60 12z m2094 -69 c40 -21 128 -91 128 -102 0
-4 -19 -31 -41 -59 l-42 -52 -23 22 c-30 28 -30 56 -3 85 20 21 21 54 2 54 -5
0 -27 -24 -51 -54 l-42 -55 40 -32 c21 -17 37 -36 34 -40 -10 -16 -51 -9 -69
11 -10 11 -24 20 -30 20 -18 0 -65 -65 -65 -89 0 -12 -3 -21 -6 -21 -13 0
-103 83 -98 91 2 4 10 6 17 3 18 -7 78 71 71 90 -4 11 0 16 13 16 22 0 99 94
95 115 -4 20 26 19 70 -3z m-2269 -57 c-3 -10 24 -45 76 -99 l82 -83 -3 -74
-3 -74 -72 -3 -72 -3 -82 86 c-45 47 -90 85 -100 85 -28 0 -23 12 19 53 l38
38 88 -96 c85 -92 122 -123 133 -111 9 9 -19 45 -106 138 -44 47 -81 89 -81
93 0 12 74 73 82 69 4 -3 5 -11 1 -19z m1467 -24 c100 -25 180 -52 180 -61 0
-12 -83 -125 -154 -210 -67 -81 -247 -284 -270 -305 -6 -5 -40 -40 -75 -78
-61 -64 -64 -68 -52 -94 24 -53 30 -117 17 -181 -7 -34 -10 -62 -7 -62 3 0 67
9 141 21 74 11 173 24 220 29 47 6 91 12 98 15 8 3 12 -8 12 -36 0 -36 -6 -46
-55 -90 -30 -28 -64 -66 -76 -85 -29 -48 -17 -59 53 -47 70 11 157 1 208 -26
22 -11 45 -21 50 -21 7 0 145 160 184 215 7 9 1 21 -20 39 l-29 26 -22 -25
c-19 -21 -24 -23 -47 -12 -22 10 -26 19 -26 55 l0 42 43 0 c31 0 49 -6 62 -20
10 -11 22 -20 27 -20 5 0 8 50 7 110 0 61 -3 110 -5 110 -2 0 -17 -13 -32 -29
-17 -18 -41 -31 -64 -34 l-38 -6 0 248 0 247 29 28 c16 16 35 41 41 57 7 16
16 29 21 29 20 0 7 -40 -26 -83 l-35 -46 0 -142 c0 -78 2 -140 5 -137 3 3 8
56 10 117 4 123 9 145 36 174 10 11 16 24 13 29 -3 4 -1 8 4 8 6 0 13 11 16
25 4 14 10 25 14 25 21 0 116 -74 205 -159 166 -159 280 -334 352 -535 l33
-91 273 0 274 0 3 -45 c2 -25 4 -54 5 -65 2 -19 -5 -20 -260 -23 -225 -2 -263
-4 -263 -17 0 -13 38 -15 268 -15 l268 0 3 -52 c1 -28 4 -55 7 -60 3 -4 -103
-8 -235 -8 l-241 0 35 -46 c70 -92 101 -273 62 -367 -19 -45 -52 -51 -67 -12
-8 20 -16 25 -44 25 -19 0 -41 3 -50 6 -10 4 -16 1 -16 -7 0 -26 -43 -169 -50
-169 -11 0 -18 24 -24 75 -2 22 -7 66 -11 98 -7 65 -5 67 65 42 23 -8 58 -15
77 -15 41 0 73 -15 73 -35 0 -29 19 -14 29 23 22 78 6 195 -40 285 -12 23 -52
71 -89 107 -37 36 -81 84 -99 107 -38 50 -91 77 -189 98 -41 8 -93 26 -116 40
-34 20 -56 25 -109 25 -57 0 -67 3 -69 18 -1 9 -2 24 -4 32 -1 8 -2 70 -3 138
l-1 122 -26 10 c-29 12 -48 2 -65 -34 -8 -16 -4 -14 15 6 16 18 31 26 41 22
14 -6 16 -27 14 -151 -1 -94 3 -149 10 -156 6 -6 11 -15 11 -20 0 -12 -203
-257 -214 -257 -5 0 -32 11 -60 24 -58 27 -116 40 -116 26 0 -6 3 -9 8 -8 18
5 72 -13 72 -24 0 -7 -18 -45 -39 -83 -31 -57 -36 -75 -28 -93 6 -12 13 -22
17 -22 12 0 22 34 12 38 -11 3 74 135 90 141 13 4 7 -6 -39 -70 -33 -47 -41
-65 -23 -54 16 10 11 -8 -10 -35 -22 -28 -26 -50 -9 -50 6 0 8 -9 4 -22 -5
-19 -2 -17 14 7 17 25 18 31 6 33 -19 4 -19 8 5 42 11 16 18 35 15 42 -6 15
33 73 43 64 2 -3 -1 -12 -7 -20 -8 -9 -8 -16 -2 -20 6 -4 3 -18 -7 -36 -14
-26 -15 -32 -3 -39 11 -7 10 -14 -8 -39 -26 -37 -27 -46 -1 -39 25 6 25 0 0
-38 -27 -42 -26 -57 5 -49 30 8 31 1 4 -43 -12 -19 -19 -36 -17 -39 5 -4 58
88 58 100 0 3 -14 3 -31 -1 l-32 -6 27 39 c31 47 32 54 5 54 l-21 0 23 36 c17
27 19 38 9 44 -9 6 -9 13 -1 28 6 11 11 29 11 40 0 24 70 89 105 98 44 11 76
-6 139 -72 71 -77 125 -112 188 -120 57 -8 106 14 145 64 52 68 61 74 103 67
33 -6 43 -3 64 18 l25 25 45 -43 c49 -48 85 -111 110 -194 17 -58 22 -141 8
-141 -5 0 -27 20 -49 44 -22 24 -64 56 -94 71 -44 23 -62 26 -105 22 -29 -3
-65 -12 -81 -21 -27 -15 -27 -15 39 -15 36 1 74 -4 85 -9 10 -5 36 -13 58 -17
39 -6 75 -29 75 -47 0 -16 -37 -7 -109 27 -40 19 -87 35 -104 35 -41 -1 -106
-30 -132 -61 l-20 -23 29 22 c29 22 109 31 131 14 6 -4 11 -56 13 -116 4 -114
11 -148 42 -181 18 -19 18 -65 1 -65 -17 0 -51 48 -45 63 3 9 -1 26 -10 39
-16 22 -16 21 -12 -22 5 -42 2 -47 -34 -78 l-39 -33 -51 68 c-27 38 -66 99
-85 137 -19 38 -35 64 -35 58 0 -22 63 -180 95 -239 36 -66 35 -87 -4 -47 -13
13 -28 24 -35 24 -6 0 -24 23 -39 50 -33 59 -44 65 -22 14 8 -20 15 -43 15
-50 0 -23 -33 -15 -68 17 -31 28 -32 31 -17 51 33 48 8 136 -50 174 -18 12
-39 15 -75 12 -41 -4 -50 -2 -50 11 0 9 -13 -7 -29 -35 -15 -29 -39 -67 -52
-85 -13 -19 -16 -28 -7 -21 13 11 16 9 20 -16 3 -25 0 -31 -26 -41 -27 -10
-33 -9 -48 10 -25 30 -22 43 4 25 39 -28 41 -17 5 23 -43 48 -51 62 -94 171
-37 95 -40 108 -18 90 19 -16 19 -6 0 23 -8 12 -28 55 -44 96 -51 123 -172
274 -285 358 l-58 43 -122 0 c-117 0 -124 -1 -167 -29 -109 -69 -255 -247
-309 -378 -17 -43 -39 -88 -47 -101 -14 -22 -13 -23 6 -12 28 15 27 3 -8 -74
-27 -60 -74 -137 -123 -201 l-23 -30 38 29 c21 15 40 26 42 24 9 -8 -84 -135
-129 -176 -26 -24 -46 -46 -44 -48 3 -2 25 10 51 26 26 16 47 25 47 20 0 -5
-42 -53 -93 -105 -51 -52 -89 -95 -85 -95 5 0 28 9 50 20 23 11 44 20 47 20
16 0 -83 -87 -133 -118 -65 -39 -61 -52 9 -28 25 8 45 12 45 8 0 -4 -24 -32
-54 -61 l-54 -53 -63 67 c-35 36 -65 70 -67 74 -2 5 13 36 33 70 34 57 93 182
82 171 -3 -3 -28 -39 -56 -80 -27 -41 -59 -86 -70 -100 -19 -24 -20 -24 -34
-6 -13 18 -10 26 28 85 54 84 71 118 101 200 26 72 18 65 -36 -30 -19 -34 -60
-89 -91 -122 l-56 -61 -41 74 c-23 41 -42 83 -42 92 0 9 -5 20 -11 24 -6 3
-17 20 -24 37 -11 27 -10 34 11 65 13 19 24 44 25 56 0 12 1 65 2 118 1 89 3
97 21 102 45 12 94 6 122 -16 l29 -22 -20 23 c-25 30 -91 60 -130 61 -17 0
-63 -16 -104 -35 -71 -34 -111 -44 -111 -26 0 30 125 69 225 71 60 1 60 1 32
16 -16 9 -52 18 -81 21 -66 7 -120 -18 -192 -89 l-52 -50 -6 28 c-17 75 38
218 114 298 l51 54 25 -25 c21 -21 31 -24 64 -18 39 7 41 5 102 -60 63 -66 63
-66 136 -76 40 -6 83 -8 95 -6 12 2 2 5 -23 6 l-45 1 50 24 c28 12 61 35 75
49 34 36 42 34 34 -8 -5 -30 -3 -36 19 -46 21 -10 30 -8 55 10 l30 21 17 -57
c20 -72 87 -178 93 -148 2 11 11 26 20 32 14 11 11 17 -25 48 -36 31 -73 101
-73 138 0 13 118 3 133 -12 9 -9 9 -14 -2 -20 -11 -7 -10 -15 8 -45 l23 -36
-22 0 c-12 0 -20 -3 -18 -7 24 -49 33 -63 40 -63 5 0 2 10 -6 22 -21 30 -20
37 4 31 25 -7 25 1 -1 43 -17 29 -18 34 -5 34 9 0 16 5 16 12 0 6 11 1 25 -12
18 -17 25 -19 25 -9 0 21 -97 77 -147 85 -48 7 -113 -14 -151 -49 -20 -19 -24
-19 -38 -5 -14 13 -13 21 6 79 35 102 78 153 165 195 49 23 50 33 1 14 -22 -8
-33 -3 -86 38 -88 68 -118 82 -178 82 -39 0 -67 -8 -109 -30 -31 -16 -63 -30
-72 -30 -39 0 -139 -33 -173 -57 -21 -14 -51 -46 -68 -72 -16 -25 -49 -59 -71
-76 -93 -67 -158 -223 -145 -346 3 -33 11 -70 18 -82 12 -21 12 -21 16 -2 5
29 31 45 73 45 20 0 56 7 79 15 71 25 71 25 65 -67 -11 -156 -23 -167 -51 -47
-19 80 -19 80 -48 75 -16 -3 -42 -6 -57 -6 -22 0 -32 -6 -39 -24 -5 -13 -13
-27 -19 -30 -17 -11 -49 30 -56 73 -6 34 -11 41 -30 41 -21 0 -23 5 -30 80 -6
68 -10 80 -25 80 -16 0 -18 -8 -13 -80 6 -76 5 -80 -15 -80 -18 0 -21 8 -27
75 l-7 75 -44 0 c-42 0 -44 1 -44 30 0 33 9 36 138 43 l72 4 1 -51 c1 -28 4
-62 8 -76 6 -21 9 -15 20 33 16 73 44 137 77 177 l26 30 -231 0 -231 0 6 48
c3 26 7 53 9 59 3 10 69 13 266 15 199 2 263 6 267 16 3 9 -54 12 -263 12
l-267 0 6 48 c13 90 -16 82 285 82 l268 0 28 78 c163 459 555 808 1024 912
130 28 132 28 341 25 159 -2 211 -7 280 -24z m251 -87 c17 -21 63 -44 88 -44
11 0 23 -4 26 -10 4 -6 -10 -10 -35 -10 -34 0 -48 7 -83 40 -28 26 -37 40 -26
40 9 0 22 -7 30 -16z m787 -47 c48 -48 51 -57 21 -57 -25 0 -224 -184 -224
-208 0 -29 -20 -20 -64 29 -40 44 -42 49 -22 49 29 0 231 185 231 212 0 27 12
22 58 -25z m-2738 -110 c1 -18 78 -67 95 -61 9 4 15 0 15 -9 0 -22 99 -91 127
-89 12 1 23 0 23 -3 0 -2 -14 -25 -32 -49 l-31 -45 -63 44 c-34 25 -65 45 -67
45 -3 0 -7 -7 -11 -15 -3 -10 13 -28 52 -57 31 -22 59 -42 61 -44 5 -5 -53
-94 -61 -94 -5 0 -8 8 -8 18 0 25 -101 96 -112 79 -6 -8 -10 -5 -14 9 -6 24
-84 84 -108 84 -20 0 -20 14 0 73 11 33 31 60 67 92 48 42 67 48 67 22z m2895
-76 c26 -37 52 -89 60 -115 13 -44 13 -46 -6 -46 -11 0 -31 -7 -44 -16 -23
-15 -24 -14 -39 15 -22 41 -20 55 9 71 28 15 32 28 11 36 -15 6 -86 -33 -86
-48 0 -5 11 -25 25 -45 41 -61 4 -68 -46 -10 l-27 31 -57 -37 c-45 -31 -54
-41 -45 -52 10 -12 17 -11 43 6 44 26 81 25 100 -5 16 -23 15 -25 -11 -41 -15
-9 -37 -29 -49 -43 l-21 -25 -34 28 c-18 15 -54 60 -81 99 l-47 71 27 5 c45 8
123 60 123 81 0 15 5 18 23 14 15 -3 37 6 69 30 27 19 47 38 47 43 -6 38 7 27
56 -47z m-1085 -251 c1 -128 -1 -234 -3 -236 -3 -4 -212 -34 -234 -34 -10 0
-13 28 -13 128 l0 127 121 128 c67 70 123 126 125 124 2 -2 4 -109 4 -237z
m-1981 24 l60 -26 -14 -28 c-19 -37 -47 -45 -86 -25 -26 14 -33 14 -40 4 -12
-20 -4 -25 126 -85 109 -50 135 -57 135 -34 0 17 -96 59 -119 53 -26 -7 -26
-7 5 61 24 54 44 72 44 41 0 -16 84 -57 109 -53 13 3 15 -6 13 -46 -4 -58 -28
-110 -71 -150 -28 -27 -32 -28 -44 -13 -18 24 -224 117 -244 110 -14 -5 -15 0
-11 40 5 41 60 177 72 177 2 0 32 -12 65 -26z m3237 -71 c17 -43 13 -66 -7
-46 -16 16 -283 -105 -268 -123 8 -10 20 -8 61 11 58 27 92 20 103 -22 3 -14
5 -26 3 -27 -14 -10 -159 -69 -161 -65 -8 10 -87 195 -87 202 0 5 9 6 19 2 26
-8 269 102 283 128 10 20 11 20 24 2 8 -10 21 -38 30 -62z m-2468 -467 c34
-27 62 -52 62 -57 0 -4 -13 -17 -30 -29 -37 -26 -60 -17 -28 11 l23 19 -30 -7
c-44 -11 -85 -6 -105 12 -16 14 -22 14 -66 -10 -38 -21 -58 -25 -89 -21 -36 6
-41 4 -57 -23 -16 -29 -58 -60 -58 -43 0 5 9 17 20 27 11 10 20 22 20 27 0 18
-21 6 -67 -37 -49 -46 -77 -60 -110 -53 -31 6 -26 37 17 91 50 63 62 69 170
97 46 12 95 28 109 36 17 9 48 13 91 11 62 -2 70 -5 128 -51z m1793 35 c24
-10 80 -27 124 -37 73 -17 84 -23 128 -69 69 -73 75 -115 16 -115 -23 0 -44
13 -84 51 -31 29 -59 48 -65 44 -8 -5 -4 -15 11 -31 12 -13 20 -26 17 -29 -8
-8 -56 34 -63 55 -5 17 -12 19 -44 14 -36 -6 -82 8 -123 38 -14 10 -20 9 -35
-4 -28 -24 -66 -29 -97 -12 -37 18 -48 8 -18 -16 12 -10 19 -21 15 -23 -10 -6
-49 9 -56 20 -8 13 80 103 116 118 45 20 107 18 158 -4z m-897 -54 c63 -42
165 -139 217 -208 61 -81 120 -177 101 -165 -7 4 -12 1 -12 -8 0 -18 31 -115
59 -186 l22 -54 -21 19 -22 20 21 -54 c11 -30 36 -78 56 -108 38 -57 37 -67
-3 -30 -14 12 -23 17 -19 12 3 -7 -12 -10 -40 -10 -34 1 -48 6 -56 20 -6 11
-19 29 -29 39 -10 11 -18 23 -18 27 0 37 -112 -11 -195 -84 l-48 -43 16 -29
c8 -17 34 -50 56 -75 l41 -44 -37 -38 c-28 -29 -45 -38 -68 -37 -16 0 -47 -3
-67 -6 -34 -7 -38 -5 -44 19 -3 15 -1 50 6 79 23 102 23 125 1 163 -12 20 -19
44 -16 53 3 9 34 33 68 54 66 38 127 49 167 27 26 -14 44 12 36 51 -10 53 -45
90 -115 122 -67 30 -141 81 -141 98 0 5 10 9 23 9 13 0 28 5 34 11 8 8 17 8
31 0 51 -27 103 5 127 77 l15 47 -4 -44 c-3 -30 -2 -40 5 -30 5 7 9 28 9 45 0
24 5 33 21 37 12 3 18 10 15 16 -4 6 -14 7 -23 4 -12 -5 -14 -3 -8 8 5 8 -1 6
-13 -4 -11 -11 -26 -16 -31 -12 -6 3 -16 -5 -23 -20 -6 -14 -23 -28 -37 -32
-14 -3 -34 -14 -45 -25 -22 -24 -32 -17 -16 11 6 12 8 21 5 21 -3 0 -14 -20
-25 -45 -24 -56 -46 -67 -72 -36 -14 18 -18 20 -18 7 0 -22 -40 -21 -41 2 0
13 -3 11 -10 -6 -13 -35 -50 -25 -71 18 -9 19 -17 29 -18 21 0 -11 -6 -8 -23
7 -13 12 -31 22 -39 22 -9 0 -25 11 -36 25 -11 14 -26 25 -33 25 -7 0 -21 8
-31 17 -18 16 -18 16 -12 -3 7 -16 6 -17 -8 -6 -12 9 -18 10 -23 2 -4 -7 2
-14 14 -17 12 -3 21 -13 22 -22 0 -10 2 -11 6 -3 9 24 20 11 26 -30 9 -67 77
-110 126 -79 11 7 60 -3 80 -16 12 -8 -53 -59 -114 -90 -83 -42 -121 -75 -135
-119 -14 -41 2 -80 28 -68 9 4 36 9 60 12 35 3 52 -2 98 -29 54 -33 56 -35 50
-71 -3 -20 -20 -60 -38 -88 -34 -54 -32 -42 -29 -250 0 -46 -3 -58 -23 -75
-14 -11 -40 -51 -59 -90 -27 -54 -36 -85 -38 -135 -5 -125 -2 -228 9 -259 6
-17 10 -31 9 -31 -1 0 -40 11 -87 24 -189 52 -360 133 -493 235 l-59 44 54 55
c56 59 53 59 -27 -2 -45 -34 -43 -31 17 25 69 66 148 158 148 172 0 4 -18 -2
-40 -13 -57 -29 -59 -25 -7 20 42 37 107 123 107 141 0 5 -20 -5 -44 -21 -24
-17 -47 -30 -51 -30 -4 0 23 33 60 73 61 66 125 158 125 181 0 6 -16 -6 -37
-25 -39 -37 -37 -29 13 41 53 75 99 196 54 141 -25 -29 -25 -21 -1 27 27 54
64 180 57 197 -11 31 97 186 190 275 128 121 138 125 271 125 68 -1 97 -5 117
-18z m-989 -137 c-10 -22 -36 -56 -57 -75 -32 -29 -46 -35 -84 -35 -39 0 -51
5 -80 34 -19 19 -34 40 -34 48 1 7 10 2 23 -13 67 -80 156 -59 203 48 18 41
28 53 36 45 8 -8 6 -22 -7 -52z m1623 24 c-2 -1 -15 0 -31 3 -22 4 -25 8 -16
19 10 12 15 12 30 -2 11 -10 18 -18 17 -20z m158 -20 c30 -63 70 -94 123 -94
26 0 41 8 67 37 22 24 34 31 34 21 0 -9 -16 -30 -35 -47 -51 -44 -110 -44
-161 2 -39 33 -80 110 -69 127 10 16 13 13 41 -46z m-1706 4 c0 -41 -93 -133
-163 -163 -77 -32 -130 -15 -197 65 -50 60 -46 78 6 26 63 -63 84 -76 126 -76
72 0 135 45 180 129 17 31 48 43 48 19z m1667 -45 c81 -123 204 -137 281 -34
12 17 31 31 42 31 14 0 3 -16 -44 -65 -58 -61 -65 -65 -106 -65 -64 0 -126 35
-206 117 l-71 73 33 0 c29 0 37 -7 71 -57z m-275 -15 c-7 -7 -12 -8 -12 -2 0
14 12 26 19 19 2 -3 -1 -11 -7 -17z m1070 -118 c-2 -36 -6 -73 -8 -82 -4 -13
0 -18 14 -18 21 0 32 39 32 118 0 39 2 43 23 40 16 -2 22 -9 21 -28 -9 -137
-9 -135 12 -135 14 0 20 8 22 30 10 122 13 135 34 135 20 0 20 -4 13 -112 -4
-62 -9 -117 -12 -121 -3 -5 -21 -6 -42 -3 -20 3 -65 8 -101 11 l-65 6 9 115
c9 109 10 115 30 112 19 -3 21 -9 18 -68z m-1859 -7 c-5 -12 -3 -14 8 -8 11 6
11 5 2 -5 -6 -7 -16 -9 -22 -6 -16 10 -13 36 4 36 9 0 12 -6 8 -17z m382 -3
c0 -22 -29 -18 -33 3 -3 14 1 18 15 15 10 -2 18 -10 18 -18z m-881 -28 c8 -16
28 -41 45 -58 26 -25 28 -31 16 -47 -12 -17 -15 -15 -39 25 -22 38 -46 92 -46
104 0 12 11 1 24 -24z m738 -68 c22 -19 61 -44 86 -55 95 -41 113 -52 127 -80
8 -15 15 -41 15 -57 l0 -30 -42 16 c-47 16 -74 9 -145 -38 l-31 -21 10 39 c11
44 41 66 103 75 29 5 44 2 58 -11 19 -16 19 -16 6 6 -13 21 -19 22 -64 16 -73
-9 -102 -28 -115 -72 -12 -43 -37 -79 -47 -69 -4 4 -9 65 -13 135 l-6 127 -18
-40 c-10 -22 -24 -74 -30 -115 l-12 -75 -13 38 c-15 43 -31 54 -102 67 -44 9
-55 7 -71 -6 -10 -10 -18 -22 -18 -27 0 -6 8 -3 18 6 23 21 74 22 118 1 24
-12 36 -26 44 -52 5 -20 8 -37 7 -39 -2 -1 -21 10 -43 25 -30 20 -51 27 -89
27 -27 0 -58 -4 -67 -9 -15 -7 -18 -3 -18 21 0 51 38 95 110 125 36 14 87 45
114 67 26 23 57 41 68 41 11 0 38 -16 60 -36z m-1327 -270 c-3 -23 -12 -50
-20 -60 -12 -16 -12 -13 0 21 8 22 15 81 17 130 2 89 2 89 6 20 2 -38 1 -89
-3 -111z m1249 62 c-2 -71 -10 -126 -19 -147 l-15 -34 5 45 c2 25 7 77 10 115
7 77 15 135 20 135 2 0 2 -51 -1 -114z m1351 -123 c16 -25 16 -26 1 -12 -24
23 -36 81 -34 174 1 80 1 80 8 -27 5 -76 12 -115 25 -135z m322 229 c9 -6 10
-17 2 -45 -13 -46 -8 -53 38 -61 21 -4 55 -12 76 -17 34 -9 37 -12 31 -37 -4
-15 -8 -29 -10 -30 -1 -2 -34 3 -73 12 -38 9 -74 16 -80 16 -5 0 -14 -19 -18
-42 -9 -43 -19 -53 -41 -40 -10 7 -7 34 15 130 26 117 33 131 60 114z m-3226
-73 c27 -31 59 -124 59 -172 0 -87 -96 -139 -162 -87 -59 46 -91 198 -55 253
19 29 69 48 107 41 14 -3 37 -18 51 -35z m2321 -131 c-2 -21 -8 -38 -13 -38
-12 0 -11 22 1 56 14 35 18 28 12 -18z m138 -17 c0 -10 -6 -23 -13 -30 -11 -8
-13 -5 -9 19 5 33 22 41 22 11z m-850 -125 c0 -24 -8 -54 -20 -71 -22 -33 -26
-50 -10 -40 6 4 10 -11 10 -38 0 -40 -4 -47 -37 -69 -21 -14 -48 -30 -60 -37
-21 -11 -23 -10 -23 14 0 22 3 25 20 20 19 -6 19 -4 -5 31 -31 45 -32 57 -2
49 l22 -7 -22 17 c-26 18 -29 51 -11 102 11 31 28 45 28 23 0 -22 20 -8 52 36
29 41 33 44 45 28 7 -10 13 -36 13 -58z m1624 34 c47 -23 86 -47 86 -54 0 -28
-37 -55 -115 -87 -44 -17 -83 -35 -88 -39 -4 -3 20 -19 53 -35 51 -24 59 -32
54 -49 -3 -12 -9 -25 -13 -29 -6 -6 -175 63 -189 77 -2 2 3 19 11 37 13 30 25
38 101 67 47 19 86 37 86 42 0 4 -25 18 -55 30 -30 12 -55 24 -55 26 0 10 24
54 30 54 4 0 46 -18 94 -40z m-1118 8 c34 -15 43 -23 31 -26 -10 -2 -27 4 -38
14 -16 15 -19 15 -19 2 0 -18 -22 -39 -45 -42 -8 -1 -22 -11 -30 -22 -17 -23
-19 -7 -4 33 11 30 37 63 49 63 4 0 29 -10 56 -22z m-243 -98 c43 -50 74 -90
69 -90 -4 0 -35 30 -68 67 -78 89 -97 113 -87 113 4 0 43 -41 86 -90z m504 59
c70 -11 130 -22 132 -25 9 -9 -48 -3 -149 15 -58 11 -105 19 -106 18 -1 -1 -6
-11 -12 -22 -11 -19 -11 -18 -12 8 0 15 4 27 10 27 5 0 67 -9 137 -21z m-2243
-93 c51 -92 58 -139 26 -156 -12 -6 -30 -8 -41 -5 -15 5 -22 2 -26 -15 -3 -11
-18 -27 -34 -35 -36 -19 -36 -19 -50 6 -10 19 -7 25 17 44 l28 23 -24 51 c-17
37 -29 51 -40 47 -56 -18 -58 -18 -70 4 -6 12 -9 24 -6 27 4 4 168 92 173 93
1 0 22 -38 47 -84z m2706 76 c0 -5 -30 -33 -66 -63 -37 -30 -73 -60 -80 -67
-12 -11 -14 -11 -13 0 0 11 143 138 155 138 2 0 4 -4 4 -8z m-742 -35 c3 -12
-4 -20 -18 -24 -21 -6 -21 -6 7 -29 l28 -23 -27 -1 c-36 0 -67 -52 -70 -116
-1 -37 -8 -58 -29 -84 -16 -19 -39 -61 -53 -92 -25 -57 -38 -69 -51 -48 -4 6
-14 9 -22 8 -9 -2 -18 3 -20 10 -6 15 29 16 44 1 8 -8 10 -1 6 28 -4 28 -1 42
11 52 9 7 16 20 16 27 0 8 19 33 42 56 38 39 41 48 42 95 1 36 -3 53 -11 53
-7 0 -13 7 -13 15 0 9 -7 30 -16 48 l-16 32 33 -33 c27 -28 34 -31 41 -18 5 9
8 22 7 28 -4 33 2 39 33 36 22 -2 34 -9 36 -21z m289 -13 c62 -9 111 -19 109
-23 -6 -9 -246 30 -246 40 0 5 6 7 13 4 6 -2 63 -11 124 -21z m263 -4 c30 -30
21 -130 -11 -130 -18 0 -38 -32 -39 -60 0 -14 -7 -36 -16 -48 -13 -20 -14 -28
-4 -53 17 -39 3 -53 -33 -37 -33 16 -34 22 -4 36 17 8 18 11 5 11 -9 1 -20 -3
-23 -9 -3 -5 -13 -10 -22 -10 -13 0 -12 5 8 27 20 22 17 21 -18 -7 -24 -18
-43 -34 -43 -36 0 -1 10 0 21 3 15 4 27 -1 40 -18 24 -31 24 -49 -1 -49 -16 0
-19 5 -14 30 6 28 5 29 -27 27 -19 -1 -45 -10 -59 -20 -27 -19 -16 -21 43 -8
27 7 37 6 34 -2 -6 -18 -127 -44 -164 -36 -18 4 -33 3 -33 -2 0 -5 -5 -9 -12
-9 -6 0 -3 9 8 21 13 14 27 19 46 17 24 -4 29 1 42 33 9 21 13 45 10 53 -6 15
28 90 46 101 15 9 12 -11 -4 -24 -8 -7 -19 -25 -24 -41 -9 -24 -8 -28 4 -23 8
3 13 12 10 19 -3 8 8 30 25 49 21 24 25 33 14 28 -12 -4 -16 -3 -12 4 14 23
49 22 73 -2 13 -13 24 -20 24 -15 0 12 -29 40 -43 41 -30 3 -54 -4 -73 -22
-21 -20 -21 -20 -27 0 -3 11 1 26 9 32 8 7 12 14 9 17 -2 3 -11 -1 -20 -8 -12
-10 -16 -8 -24 11 -5 15 -5 29 1 37 16 19 30 14 23 -7 -6 -21 15 -28 95 -29
19 -1 45 -4 58 -7 20 -5 22 -3 13 13 -14 26 18 57 48 47 21 -6 30 8 12 19 -5
3 -7 15 -4 25 3 13 -1 21 -14 24 -15 4 -14 5 5 6 12 0 31 -8 42 -19z m-333
-75 c-1 -30 -4 -35 -26 -36 -15 0 -39 -3 -55 -5 -19 -4 -32 1 -41 13 -17 22
-9 35 18 32 31 -2 87 12 87 22 0 5 4 9 9 9 5 0 9 -16 8 -35z m40 -10 c-1 -35
-10 -45 -22 -24 -9 13 3 59 14 59 5 0 9 -16 8 -35z m-465 -40 c-6 -22 -37 -75
-44 -75 -4 0 2 -16 14 -35 11 -20 18 -38 15 -41 -3 -3 -12 7 -21 23 -8 16 -22
35 -30 42 -20 17 -21 32 -1 25 18 -7 11 21 -13 49 -14 16 -13 20 13 47 l28 29
21 -27 c12 -15 20 -31 18 -37z m228 22 c-1 -4 8 -19 20 -34 11 -14 20 -34 20
-44 0 -26 53 -135 58 -120 5 15 52 -51 52 -73 0 -8 -10 -22 -22 -31 -23 -15
-23 -15 8 -9 17 3 48 1 69 -5 30 -8 44 -7 67 5 22 12 45 14 92 9 46 -5 71 -3
92 8 68 34 136 25 147 -21 2 -9 3 -3 1 13 -7 55 -58 78 -120 55 -23 -9 -25 -8
-15 4 19 23 98 30 126 12 35 -23 49 -20 62 15 10 26 16 30 37 25 17 -4 26 -1
30 10 4 11 2 15 -8 11 -8 -3 -20 1 -27 9 -7 9 -20 12 -32 8 -14 -4 -18 -2 -15
7 10 32 71 13 136 -41 21 -18 13 -58 -19 -95 -28 -31 -70 -51 -54 -25 3 6 2
10 -4 10 -5 0 -19 -15 -31 -34 -11 -19 -35 -43 -51 -54 -19 -12 -27 -22 -20
-26 19 -12 12 -29 -9 -23 -11 3 -20 1 -20 -4 0 -5 7 -9 15 -9 8 0 15 -7 15
-15 0 -11 -7 -13 -29 -9 -18 4 -32 1 -36 -7 -6 -9 -2 -11 12 -7 24 6 56 -9 48
-23 -6 -9 -54 -2 -68 11 -4 4 -2 26 6 48 14 41 14 42 -7 42 -12 0 -26 4 -31 9
-6 5 -28 11 -50 14 -22 3 -32 3 -22 0 16 -4 18 -11 12 -40 -3 -19 -11 -47 -17
-62 l-10 -26 -13 30 c-7 17 -15 47 -18 68 -5 30 -3 37 11 37 10 1 4 6 -13 14
-16 7 -31 9 -33 4 -2 -4 -13 -8 -23 -8 -11 0 -29 -5 -40 -11 -11 -5 -39 -10
-62 -9 -23 1 -53 1 -66 2 -13 0 -43 -6 -67 -12 -41 -12 -44 -15 -45 -49 0 -20
-3 -30 -6 -23 -7 19 -23 14 -23 -7 0 -10 7 -21 15 -25 8 -3 15 -12 15 -20 0
-13 4 -13 35 0 49 20 55 18 55 -20 0 -66 33 -69 174 -15 43 16 81 28 84 24 11
-11 -64 -78 -113 -101 -27 -13 -68 -24 -90 -25 -34 0 -37 -2 -17 -9 12 -5 22
-12 22 -14 0 -3 -20 -17 -45 -32 -119 -69 -318 -24 -341 79 l-7 32 -9 -32 c-5
-18 -13 -33 -18 -33 -16 0 -23 50 -12 75 12 25 -4 48 -29 43 -16 -4 -25 32
-10 42 7 3 9 13 6 21 -4 10 -17 13 -46 11 -37 -4 -41 -2 -52 27 -7 18 -19 31
-29 31 -26 0 -30 15 -9 34 18 16 22 16 70 -8 28 -14 61 -26 74 -26 13 0 28 -5
34 -11 8 -8 17 -8 31 0 11 6 37 11 56 11 36 0 36 0 36 43 0 58 28 130 65 170
l31 32 -33 43 c-37 49 -44 100 -17 127 16 16 65 18 64 2z m54 -63 c10 -27 24
-62 32 -79 12 -27 13 -28 8 -4 -6 30 12 39 82 39 50 0 70 -15 77 -60 3 -19 4
-30 1 -25 -3 7 -27 8 -67 4 -34 -3 -67 -2 -73 2 -6 5 -13 6 -16 4 -6 -7 -48
88 -48 108 0 8 -10 27 -22 42 -14 18 -17 26 -7 23 8 -3 22 -27 33 -54z m559
30 c-18 -14 -33 -31 -33 -37 0 -7 -14 -12 -30 -13 -27 -1 -29 1 -17 15 8 9 12
21 10 28 -3 7 3 10 16 6 11 -3 30 2 43 11 37 26 46 18 11 -10z m-774 -3 c11
-7 6 -19 -28 -60 -45 -54 -71 -60 -46 -11 9 17 20 41 25 55 10 26 25 31 49 16z
m301 -28 c-1 -36 -2 -37 -15 -19 -13 18 -20 15 -16 -6 0 -5 -3 -8 -9 -8 -5 0
-10 9 -10 20 0 11 7 20 15 20 8 0 15 7 15 15 0 8 5 15 10 15 6 0 10 -17 10
-37z m40 2 c0 -13 -4 -27 -10 -30 -6 -4 -10 8 -10 30 0 22 4 34 10 30 6 -3 10
-17 10 -30z m-590 8 c0 -13 3 -14 12 -5 15 15 60 16 75 1 10 -10 6 -59 -6 -59
-3 0 -24 9 -45 21 -32 17 -44 19 -63 10 -13 -6 -35 -11 -48 -11 -13 0 -27 -4
-30 -10 -3 -5 -18 -7 -33 -4 -22 4 -39 -2 -74 -29 -58 -44 -86 -59 -101 -54
-19 6 48 67 74 67 12 0 47 19 77 42 49 36 54 38 49 18 l-6 -22 23 21 c27 26
37 27 30 4 -4 -13 0 -11 12 5 20 26 54 30 54 5z m660 -9 c13 -32 13 -43 0 -24
-5 8 -10 11 -10 5 0 -5 -11 -10 -25 -10 -28 0 -30 7 -13 35 17 27 37 25 48 -6z
m655 -4 c6 -9 -58 -114 -75 -125 -3 -2 -11 4 -17 15 -10 15 -6 27 24 69 35 50
55 62 68 41z m65 -62 c0 -5 -19 -36 -42 -69 -31 -43 -39 -62 -31 -70 16 -16
28 -6 73 62 43 62 51 67 68 46 9 -10 -4 -35 -54 -105 l-65 -92 -27 16 c-15 8
-40 26 -56 39 -27 22 -28 25 -16 54 7 17 16 28 21 25 5 -2 30 25 55 60 37 52
50 63 61 55 7 -6 13 -16 13 -21z m-1394 -3 c-21 -52 -21 -51 -3 -36 9 7 17 20
17 27 0 18 12 18 55 0 41 -18 50 -52 11 -42 -21 5 -25 2 -32 -32 -4 -20 -8
-44 -8 -54 -1 -9 -4 -19 -7 -23 -9 -9 -79 22 -79 34 0 19 -17 12 -23 -9 -9
-35 -91 -23 -124 19 -11 13 -12 8 -7 -27 7 -43 7 -43 -20 -36 l-28 7 26 -26
c23 -23 26 -34 26 -95 0 -41 7 -85 16 -108 9 -21 13 -50 10 -65 -3 -16 -1 -31
4 -34 6 -3 10 -11 10 -17 0 -16 -130 -2 -148 15 -7 8 -22 47 -32 88 -15 56
-17 83 -10 114 5 22 10 67 10 101 0 71 6 78 115 144 79 48 143 65 132 36 -4
-10 -9 -30 -12 -44 -4 -21 -1 -19 14 11 24 49 41 67 41 43 0 -9 -5 -27 -11
-38 -8 -16 -8 -19 1 -13 7 4 18 23 26 41 8 19 19 34 25 34 6 0 8 -7 5 -15z
m945 -33 c10 -13 15 -30 12 -38 -8 -22 -39 -17 -50 9 -12 25 -12 43 0 39 5 -1
6 2 2 8 -3 5 -3 15 1 22 6 9 9 8 12 -2 3 -8 13 -25 23 -38z m-2358 13 c42 -29
97 -117 97 -156 0 -14 -7 -34 -15 -45 -14 -19 -14 -18 -32 6 -10 14 -18 40
-19 59 -1 26 -10 43 -37 68 -20 18 -44 33 -52 33 -23 0 -65 -46 -65 -71 0 -27
71 -99 98 -99 20 0 56 -43 45 -54 -4 -3 -23 -6 -43 -6 -27 0 -47 9 -77 35 -46
39 -59 44 -42 16 14 -21 6 -51 -14 -51 -7 0 -26 14 -42 30 -22 23 -26 33 -17
42 9 9 13 7 18 -5 3 -9 11 -17 16 -17 6 0 7 7 4 16 -4 9 -2 22 3 28 6 7 5 26
-1 52 -14 53 3 99 46 125 42 26 84 24 129 -6z m1782 -5 c10 -11 15 -23 12 -27
-8 -7 -47 25 -47 39 0 14 16 9 35 -12z m-22 -24 c21 -17 22 -30 1 -22 -12 4
-15 2 -11 -9 9 -23 -9 -27 -34 -6 -20 16 -21 21 -10 35 16 19 30 20 54 2z
m-247 -51 c16 -39 18 -55 6 -55 -8 0 -32 58 -32 78 0 22 11 12 26 -23z m526
15 c15 0 28 -4 28 -10 0 -5 -10 -10 -22 -10 -24 1 -58 21 -58 36 0 4 5 3 12
-4 7 -7 25 -12 40 -12z m-482 -10 c0 -5 -4 -10 -10 -10 -5 0 -10 5 -10 10 0 6
5 10 10 10 6 0 10 -4 10 -10z m170 -15 c14 -17 5 -51 -17 -59 -33 -13 -57 36
-31 62 16 16 33 15 48 -3z m627 -21 c-3 -3 -12 -4 -19 -1 -8 3 -5 6 6 6 11 1
17 -2 13 -5z m-47 -14 c-8 -5 -22 -9 -30 -9 -10 0 -8 3 5 9 27 12 43 12 25 0z
m-704 -36 c15 -4 21 -14 22 -35 1 -33 -22 -39 -54 -13 -18 15 -18 15 9 9 15
-3 27 -1 27 5 0 5 -6 11 -12 11 -7 1 -19 2 -27 3 -8 0 -16 7 -18 14 -5 13 18
16 53 6z m67 -13 c-7 -28 16 -36 26 -9 8 21 10 22 17 4 8 -20 -20 -50 -40 -43
-17 6 -29 34 -23 51 9 22 26 20 20 -3z m-373 -14 c0 -7 -7 -22 -15 -33 -14
-18 -14 -18 -15 7 0 14 3 29 7 32 11 11 23 8 23 -6z m1337 -9 c11 -13 24 -33
27 -45 16 -50 -78 -183 -114 -163 -10 5 -21 6 -26 2 -5 -4 9 12 29 36 51 58
62 84 48 111 -15 27 -56 37 -79 20 -16 -13 -16 -12 -1 10 12 19 54 42 90 50 3
0 15 -9 26 -21z m-1261 -64 c0 -27 -5 -68 -12 -92 -8 -23 -14 -67 -14 -97 0
-46 -3 -55 -18 -55 -17 0 -34 30 -45 78 -5 20 9 71 39 147 7 18 6 18 -9 6 -20
-16 -22 -5 -6 36 23 62 62 48 65 -23z m825 11 c0 -6 -18 -13 -40 -17 -22 -4
-50 -12 -61 -18 -25 -13 -39 -5 -22 12 11 11 101 38 115 35 5 -2 8 -7 8 -12z
m122 -1 c3 -4 0 -13 -8 -21 -21 -20 -19 -33 4 -33 11 0 23 -4 26 -10 6 -10
-47 -15 -56 -5 -3 2 -3 20 -1 40 4 32 19 45 35 29z m-279 -10 c30 -11 16 -22
-22 -17 -23 3 -53 -1 -76 -11 -44 -18 -56 -20 -56 -7 0 22 118 49 154 35z
m-1782 -44 l36 -30 -24 -97 c-33 -133 -30 -126 -54 -113 -13 7 -20 21 -20 40
0 40 -96 124 -132 115 -17 -4 -29 0 -42 14 -18 20 -18 21 0 28 11 4 55 22 99
39 44 18 85 33 90 34 6 0 27 -13 47 -30z m1948 10 c0 -5 -12 -12 -27 -15 -16
-4 -46 -13 -67 -21 -40 -14 -58 -12 -40 5 9 10 99 39 122 40 6 1 12 -3 12 -9z
m-153 -17 c3 -7 -11 -11 -40 -11 -24 0 -61 -8 -82 -16 -24 -11 -42 -13 -48 -7
-6 6 14 17 54 30 68 22 110 23 116 4z m-588 -38 c30 -15 52 -49 25 -38 -8 3
-14 -1 -14 -11 0 -9 -5 -16 -11 -16 -17 0 -49 20 -49 31 0 6 6 7 13 3 6 -4 4
2 -6 13 -28 33 -5 43 42 18z m756 7 c-14 -12 -202 -82 -220 -82 -36 0 -8 18
83 52 91 34 158 49 137 30z m83 2 c34 -9 27 -50 -8 -46 -32 3 -42 14 -34 35 7
19 9 19 42 11z m-263 -13 c-16 -15 -65 -25 -65 -13 0 11 21 19 55 21 12 1 15
-3 10 -8z m329 -7 c23 -9 20 -39 -10 -85 -41 -66 -144 -159 -175 -159 -5 0
-21 -7 -35 -16 -13 -9 -27 -14 -31 -10 -3 3 -11 2 -18 -4 -6 -5 -38 -11 -70
-14 -49 -3 -60 -7 -60 -22 0 -9 -6 -19 -13 -22 -14 -4 -13 32 1 55 4 6 3 14
-3 18 -5 3 -10 -1 -10 -9 0 -9 -5 -16 -11 -16 -6 0 -8 -9 -4 -21 5 -16 3 -20
-6 -17 -8 3 -13 14 -11 24 2 10 3 26 3 34 1 12 14 16 57 18 164 6 294 82 355
208 11 24 22 44 23 44 1 0 9 -3 18 -6z m136 -49 c0 -7 -8 -19 -18 -28 -17 -16
-20 -15 -42 8 l-23 24 24 20 c22 18 26 18 42 4 9 -9 17 -21 17 -28z m-212 -7
c9 2 8 -5 -4 -24 -17 -26 -18 -26 -26 -5 -13 35 -30 25 -22 -14 5 -30 4 -35
-13 -35 -11 0 -28 6 -38 14 -18 13 -18 14 3 20 12 4 22 14 22 22 0 8 5 14 10
14 6 0 10 7 10 15 0 13 4 14 23 3 12 -7 28 -11 35 -10z m-724 -233 c63 -76
197 -155 265 -155 15 0 36 9 46 20 28 31 33 24 23 -32 -14 -83 -18 -87 -36
-49 -15 29 -28 38 -94 61 -91 32 -168 87 -225 161 -46 61 -103 169 -103 196 0
10 20 -21 44 -69 23 -48 60 -107 80 -133z m-14 190 c0 -8 -2 -15 -4 -15 -2 0
-6 7 -10 15 -3 8 -1 15 4 15 6 0 10 -7 10 -15z m850 -34 c0 -7 -44 -31 -57
-31 -4 0 4 11 17 25 21 22 40 25 40 6z m-1855 -13 c14 -6 25 -14 25 -18 0 -10
-90 -180 -95 -180 -2 0 -15 5 -29 11 l-25 12 47 93 c26 52 48 94 49 94 1 0 14
-5 28 -12z m1939 -40 c-10 -18 -17 -49 -16 -68 2 -33 1 -34 -11 -13 -12 21
-13 21 -41 -18 -42 -55 -134 -125 -213 -161 -58 -27 -82 -32 -158 -34 l-90 -3
75 9 c98 12 161 33 235 78 61 37 165 136 165 157 0 7 -10 17 -22 24 -21 10
-19 11 13 7 33 -4 38 -1 55 29 10 19 20 33 22 31 2 -2 -4 -19 -14 -38z m-344
12 c-13 -23 -26 -26 -33 -6 -7 18 1 26 25 26 16 0 17 -3 8 -20z m-75 0 c11
-18 -6 -50 -25 -50 -24 0 -36 18 -21 33 8 8 11 8 11 -1 0 -7 5 -12 11 -12 6 0
8 9 4 20 -7 20 9 28 20 10z m-1406 -31 c28 -10 40 -26 77 -102 l44 -90 19 44
c10 24 21 52 25 62 4 14 12 17 28 12 13 -4 26 -10 30 -14 12 -11 -62 -191 -79
-191 -31 0 -50 22 -92 109 -25 49 -48 88 -51 86 -4 -3 -17 -31 -29 -64 l-21
-59 -30 11 c-17 6 -29 16 -27 22 33 87 71 185 72 185 1 0 17 -5 34 -11z m931
-9 c0 -5 -5 -10 -11 -10 -5 0 -7 5 -4 10 3 6 8 10 11 10 2 0 4 -4 4 -10z m280
-40 c0 -5 -11 -10 -24 -10 -14 0 -28 5 -31 10 -4 6 7 10 24 10 17 0 31 -4 31
-10z m410 -72 c-1 -15 -50 61 -50 77 0 5 11 -7 25 -27 14 -20 25 -43 25 -50z
m-380 63 c0 -6 -4 -12 -9 -15 -5 -3 -7 -15 -4 -26 5 -20 -11 -28 -21 -11 -8
13 11 61 24 61 5 0 10 -4 10 -9z m-430 -51 c-42 -36 -70 -54 -70 -43 1 10 82
73 95 73 5 0 -6 -14 -25 -30z m733 15 c8 -19 -13 -31 -24 -14 -13 20 -11 29 5
29 8 0 16 -7 19 -15z m-413 -10 c11 -13 8 -15 -21 -15 -19 1 -45 7 -59 15 -24
14 -24 14 21 15 30 0 51 -6 59 -15z m-755 -9 c132 -19 175 -47 175 -111 0 -46
-27 -83 -70 -96 -31 -10 -62 -10 -137 0 -53 6 -99 14 -102 16 -9 10 21 205 33
205 6 0 52 -6 101 -14z m1079 -22 c10 -25 -2 -34 -43 -34 -53 0 -59 12 -14 32
48 21 50 21 57 2z m-769 -21 c3 -10 1 -19 -4 -21 -6 -2 -11 -12 -11 -22 0 -16
7 -18 80 -13 l80 6 0 -27 c0 -26 0 -26 -80 -26 -73 0 -80 -2 -80 -20 0 -18 7
-20 85 -20 76 0 85 -2 85 -18 0 -17 -12 -20 -112 -25 -61 -4 -112 -6 -114 -4
-1 1 -5 48 -9 105 l-7 102 40 0 c29 0 42 -5 47 -17z m145 -8 c0 -8 -7 -15 -16
-15 -14 0 -14 3 -4 15 7 8 14 15 16 15 2 0 4 -7 4 -15z m965 5 c7 -11 -43 -46
-52 -36 -7 7 25 46 38 46 4 0 10 -4 14 -10z m-821 -127 c10 -29 7 -33 -29 -36
-30 -2 -34 5 -49 87 l-8 39 39 -33 c21 -18 42 -44 47 -57z"/>
<path d="M2961 4132 c-27 -106 -52 -234 -47 -239 18 -18 35 17 59 123 32 138
32 140 12 148 -10 4 -17 -5 -24 -32z"/>
<path d="M3306 4053 c-4 -4 -16 -27 -27 -52 -15 -35 -17 -46 -7 -53 7 -4 15
-8 18 -8 9 1 50 102 44 111 -6 11 -18 12 -28 2z"/>
<path d="M1794 4016 c-9 -22 118 -247 136 -243 8 2 14 10 12 18 -6 25 -126
239 -135 239 -4 0 -10 -7 -13 -14z"/>
<path d="M3005 3657 c-65 -93 -70 -108 -10 -32 48 62 69 94 63 100 -2 2 -25
-29 -53 -68z"/>
<path d="M2566 3671 c-3 -4 6 -6 19 -3 14 2 25 6 25 8 0 8 -39 4 -44 -5z"/>
<path d="M2518 3663 c6 -2 18 -2 25 0 6 3 1 5 -13 5 -14 0 -19 -2 -12 -5z"/>
<path d="M2443 3653 c9 -2 25 -2 35 0 9 3 1 5 -18 5 -19 0 -27 -2 -17 -5z"/>
<path d="M2358 3643 c12 -2 30 -2 40 0 9 3 -1 5 -23 4 -22 0 -30 -2 -17 -4z"/>
<path d="M2283 3633 c9 -2 25 -2 35 0 9 3 1 5 -18 5 -19 0 -27 -2 -17 -5z"/>
<path d="M2520 3633 c-14 -2 -140 -20 -280 -39 -140 -19 -274 -37 -297 -40
l-43 -6 0 -259 0 -258 -30 -16 c-16 -9 -30 -18 -30 -20 0 -11 73 -115 81 -115
4 0 23 21 42 48 24 32 58 60 110 90 l75 42 38 -25 c20 -14 45 -25 55 -25 18 0
19 -11 19 -191 l0 -191 -32 6 c-94 20 -158 27 -198 21 -113 -17 -191 -79 -230
-183 -12 -30 -19 -56 -17 -59 2 -2 24 8 48 22 73 41 172 31 251 -27 22 -16 37
-2 131 116 77 96 181 189 234 208 l33 12 0 147 c0 97 4 150 11 155 18 11 69
97 69 116 0 16 -9 18 -70 18 -75 0 -128 19 -164 59 -11 12 -23 21 -28 21 -5 0
-71 -34 -145 -75 -75 -41 -138 -75 -140 -75 -1 0 -3 47 -3 105 0 100 1 105 23
109 12 3 96 15 187 27 91 12 177 27 191 34 79 41 179 170 179 232 0 24 -10 26
-70 16z"/>
<path d="M2213 3623 c9 -2 25 -2 35 0 9 3 1 5 -18 5 -19 0 -27 -2 -17 -5z"/>
<path d="M2000 3601 c-64 -9 -121 -20 -128 -25 -9 -5 -11 -50 -10 -169 l2
-162 3 155 c2 85 7 158 12 163 4 4 73 17 152 28 79 11 149 21 154 24 24 9 -80
1 -185 -14z"/>
<path d="M2540 3435 c-48 -49 -51 -63 -4 -17 32 30 59 62 52 62 -2 0 -24 -20
-48 -45z"/>
<path d="M3310 3436 c0 -27 35 -43 44 -20 3 8 11 14 18 14 9 0 9 -3 -2 -10
-13 -9 -13 -11 0 -20 11 -7 16 -5 18 11 5 32 -14 46 -39 31 -12 -8 -24 -11
-27 -8 -3 3 0 6 6 6 7 0 12 5 12 10 0 6 -7 10 -15 10 -9 0 -15 -9 -15 -24z"/>
<path d="M3310 3367 c0 -18 7 -27 24 -31 13 -3 31 -9 40 -12 12 -5 16 0 16 19
0 18 -7 27 -24 31 -13 3 -31 9 -40 12 -12 5 -16 0 -16 -19z m64 -16 c3 -4 -6
-6 -19 -3 -14 2 -25 6 -25 8 0 8 39 4 44 -5z"/>
<path d="M2445 3350 c-3 -6 1 -7 9 -4 18 7 21 14 7 14 -6 0 -13 -4 -16 -10z"/>
<path d="M3310 3301 c0 -5 6 -12 13 -14 10 -4 10 -6 0 -6 -27 -2 -11 -19 27
-29 22 -5 40 -6 40 -2 0 5 -10 11 -22 13 l-23 4 23 2 c32 2 27 17 -9 30 -39
13 -49 14 -49 2z"/>
<path d="M2060 3268 c0 -19 2 -20 10 -8 13 19 13 30 0 30 -5 0 -10 -10 -10
-22z"/>
<path d="M1866 3225 c4 -8 8 -15 10 -15 2 0 4 7 4 15 0 8 -4 15 -10 15 -5 0
-7 -7 -4 -15z"/>
<path d="M3310 3206 c0 -18 7 -25 31 -30 42 -8 49 -8 49 3 0 5 -8 12 -17 14
-17 4 -17 5 0 6 28 2 19 18 -14 25 -47 9 -49 8 -49 -18z"/>
<path d="M1855 3050 c-3 -6 1 -7 9 -4 18 7 21 14 7 14 -6 0 -13 -4 -16 -10z"/>
<path d="M1810 3020 c-23 -23 -24 -19 50 -125 36 -53 49 -65 65 -65 6 1 3 5
-6 10 -20 12 -109 142 -109 160 0 7 8 19 18 26 9 7 14 14 10 14 -5 0 -17 -9
-28 -20z"/>
<path d="M2098 2979 c-21 -11 -38 -22 -38 -24 0 -5 79 32 89 41 12 11 -18 1
-51 -17z"/>
<path d="M2034 2942 c-20 -14 -66 -82 -55 -82 6 0 11 4 11 10 0 5 14 23 31 41
28 29 36 46 13 31z"/>
<path d="M3290 2859 c0 -5 -4 -7 -10 -4 -5 3 -10 -3 -10 -14 0 -26 12 -27 33
-3 21 23 21 32 2 32 -8 0 -15 -5 -15 -11z"/>
<path d="M1950 2850 c0 -5 5 -10 11 -10 5 0 7 5 4 10 -3 6 -8 10 -11 10 -2 0
-4 -4 -4 -10z"/>
<path d="M2558 2743 c7 -3 16 -2 19 1 4 3 -2 6 -13 5 -11 0 -14 -3 -6 -6z"/>
<path d="M2003 2683 c9 -2 25 -2 35 0 9 3 1 5 -18 5 -19 0 -27 -2 -17 -5z"/>
<path d="M2990 2570 c0 -5 7 -7 15 -4 8 4 15 8 15 10 0 2 -7 4 -15 4 -8 0 -15
-4 -15 -10z"/>
<path d="M2925 2560 c-3 -5 -1 -10 4 -10 6 0 11 5 11 10 0 6 -2 10 -4 10 -3 0
-8 -4 -11 -10z"/>
<path d="M1197 2452 c-31 -32 -35 -55 -10 -50 19 3 47 51 41 69 -2 5 -16 -3
-31 -19z"/>
<path d="M3950 2471 c0 -23 30 -71 45 -71 24 0 17 24 -15 55 -16 16 -30 23
-30 16z"/>
<path d="M3301 2390 c-17 -46 -37 -78 -69 -109 -38 -37 -43 -45 -28 -53 9 -5
16 -18 16 -28 0 -32 13 -23 47 34 34 56 67 161 61 199 -2 15 -10 2 -27 -43z
m-1 -66 c-15 -45 -49 -104 -60 -104 -4 0 -13 6 -19 14 -9 10 -6 17 12 29 13 8
34 35 47 60 29 54 37 54 20 1z"/>
<path d="M3528 2343 c12 -2 32 -2 45 0 12 2 2 4 -23 4 -25 0 -35 -2 -22 -4z"/>
<path d="M1594 2314 c-18 -15 -17 -15 15 -10 18 3 48 6 65 6 24 0 27 3 16 10
-23 15 -74 12 -96 -6z"/>
<path d="M2065 2320 c3 -5 10 -10 16 -10 5 0 9 5 9 10 0 6 -7 10 -16 10 -8 0
-12 -4 -9 -10z"/>
<path d="M3495 2321 c-14 -6 -4 -9 40 -14 57 -6 75 -3 62 9 -10 10 -81 14
-102 5z"/>
<path d="M1598 2279 c-24 -13 -23 -39 0 -39 10 0 43 5 73 11 43 9 63 8 97 -4
23 -8 42 -13 42 -11 0 2 -20 15 -43 29 -47 27 -135 34 -169 14z"/>
<path d="M3434 2276 c-49 -21 -51 -36 -4 -24 28 7 53 7 84 -1 60 -15 86 -14
86 4 0 34 -104 48 -166 21z"/>
<path d="M1856 2218 c24 -81 50 -131 91 -168 l37 -35 -36 45 c-42 53 -71 107
-66 122 3 7 14 -5 27 -25 13 -21 38 -49 55 -62 53 -41 52 -29 -2 20 -27 24
-62 69 -78 100 -16 30 -32 55 -36 55 -4 0 0 -24 8 -52z"/>
<path d="M3311 2243 c-29 -64 -75 -124 -117 -150 -49 -31 -51 -35 -29 -53 8
-7 15 -20 15 -28 0 -22 87 63 110 108 10 19 23 54 30 78 6 24 14 50 17 58 10
26 -14 14 -26 -13z m-22 -97 c-11 -25 -38 -64 -58 -87 -35 -40 -36 -41 -53
-22 -17 19 -16 21 28 51 25 18 57 52 72 76 34 54 40 44 11 -18z"/>
<path d="M1994 2204 c3 -9 6 -18 6 -20 0 -2 5 -4 11 -4 5 0 7 5 4 10 -3 6 0
10 7 10 9 0 9 3 -2 10 -22 14 -33 12 -26 -6z"/>
<path d="M1532 2122 c-18 -37 -43 -85 -57 -107 -14 -22 -25 -48 -25 -57 0 -25
27 -22 44 5 29 45 92 227 78 227 -4 -1 -22 -31 -40 -68z"/>
<path d="M3611 2178 c-1 -21 57 -186 75 -215 8 -13 21 -23 29 -23 26 0 17 43
-21 99 -20 29 -47 77 -60 105 -12 28 -23 43 -23 34z"/>
<path d="M1377 2129 c3 -24 10 -48 15 -54 5 -6 6 7 2 35 -9 59 -24 76 -17 19z"/>
<path d="M3795 2158 c-10 -33 -11 -78 -1 -78 6 0 11 20 11 45 1 46 -2 55 -10
33z"/>
<path d="M2026 2147 c3 -10 9 -15 12 -12 3 3 0 11 -7 18 -10 9 -11 8 -5 -6z"/>
<path d="M1850 2082 c0 -22 41 -142 51 -147 5 -4 3 10 -6 31 -20 48 -13 54 14
12 11 -18 21 -30 21 -26 0 4 -13 29 -30 55 -16 26 -30 53 -30 59 0 7 -4 16
-10 19 -5 3 -10 2 -10 -3z"/>
<path d="M3791 2043 c-1 -18 4 -33 9 -33 12 0 12 17 0 45 -7 17 -9 15 -9 -12z"/>
<path d="M1376 2042 c-4 -13 -5 -26 -2 -29 10 -11 18 4 14 29 l-4 23 -8 -23z"/>
<path d="M1563 1997 c-18 -34 -55 -93 -82 -130 -56 -77 -68 -104 -52 -120 15
-15 47 16 79 78 33 63 93 216 90 227 -2 4 -18 -20 -35 -55z"/>
<path d="M1352 1945 c-23 -47 -29 -72 -12 -45 16 25 12 -7 -5 -40 -9 -17 -13
-30 -11 -30 11 0 37 62 33 78 -2 9 3 30 11 45 7 16 12 31 10 33 -2 2 -14 -17
-26 -41z"/>
<path d="M1862 1878 c9 -43 18 -62 18 -39 0 7 5 9 10 6 14 -9 13 -1 -7 40 -23
48 -33 44 -21 -7z"/>
<path d="M1137 3453 c-13 -13 -6 -23 35 -53 47 -34 54 -36 62 -15 3 10 -10 25
-39 45 -48 33 -49 33 -58 23z"/>
<path d="M2900 3268 c-38 -40 -67 -74 -65 -76 3 -4 145 137 145 144 0 12 -18
-3 -80 -68z"/>
<path d="M2821 3164 c0 -11 3 -14 6 -6 3 7 2 16 -1 19 -3 4 -6 -2 -5 -13z"/>
<path d="M2557 2480 c3 -25 9 -54 14 -65 6 -17 8 -15 8 10 1 17 5 46 11 65 8
30 7 33 -4 18 -7 -10 -16 -18 -19 -18 -3 0 -8 8 -11 18 -3 9 -2 -3 1 -28z"/>
<path d="M2291 2378 c-1 -10 11 -30 27 -46 15 -15 19 -19 10 -7 -9 11 -21 31
-27 45 -7 17 -10 20 -10 8z"/>
<path d="M2810 2323 c-22 -23 -23 -25 -4 -15 12 6 24 18 28 27 7 20 5 19 -24
-12z"/>
<path d="M2182 2315 c-6 -14 -7 -25 -2 -25 9 0 25 39 18 46 -3 2 -10 -7 -16
-21z"/>
<path d="M2947 2316 c3 -14 11 -27 19 -30 12 -5 12 0 -1 24 -19 36 -24 38 -18
6z"/>
<path d="M2687 2309 c7 -7 15 -10 18 -7 3 3 -2 9 -12 12 -14 6 -15 5 -6 -5z"/>
<path d="M2398 2293 c6 -2 18 -2 25 0 6 3 1 5 -13 5 -14 0 -19 -2 -12 -5z"/>
<path d="M2733 2293 c9 -2 25 -2 35 0 9 3 1 5 -18 5 -19 0 -27 -2 -17 -5z"/>
<path d="M3000 2230 c6 -11 13 -20 16 -20 2 0 0 9 -6 20 -6 11 -13 20 -16 20
-2 0 0 -9 6 -20z"/>
<path d="M2120 2203 c0 -15 18 -35 23 -27 3 5 -1 15 -9 22 -8 7 -14 9 -14 5z"/>
<path d="M2997 2184 c3 -7 9 -14 14 -14 14 0 10 17 -5 23 -10 4 -13 1 -9 -9z"/>
<path d="M2167 2140 c-8 -22 -12 -42 -8 -45 8 -5 35 74 28 81 -2 2 -11 -14
-20 -36z"/>
<path d="M2963 2145 c6 -19 14 -35 18 -35 9 0 -9 58 -21 65 -4 3 -3 -11 3 -30z"/>
<path d="M2985 2089 c-4 -6 -5 -12 -2 -15 2 -3 7 2 10 11 7 17 1 20 -8 4z"/>
<path d="M3010 2061 c0 -6 4 -13 10 -16 6 -3 7 1 4 9 -7 18 -14 21 -14 7z"/>
<path d="M2095 2008 c-16 -24 -22 -38 -14 -31 15 12 53 73 46 73 -2 0 -17 -19
-32 -42z"/>
<path d="M3056 1988 c10 -14 21 -24 23 -22 3 3 -6 15 -18 27 l-24 22 19 -27z"/>
<path d="M3040 1966 c0 -2 8 -10 18 -17 15 -13 16 -12 3 4 -13 16 -21 21 -21
13z"/>
<path d="M2070 1948 c0 -4 4 -8 9 -8 6 0 12 4 15 8 3 5 -1 9 -9 9 -8 0 -15 -4
-15 -9z"/>
<path d="M2130 1911 c-11 -22 -16 -42 -12 -45 5 -3 16 15 25 40 20 55 14 57
-13 5z"/>
<path d="M2257 1915 c19 -58 105 -157 118 -135 4 6 -15 31 -42 58 -27 26 -57
58 -66 72 -12 19 -15 20 -10 5z"/>
<path d="M2211 1903 c-2 -37 35 -141 69 -193 41 -63 99 -115 113 -101 7 7 -9
31 -51 76 -64 68 -106 138 -121 202 -5 22 -9 29 -10 16z"/>
<path d="M2095 1849 c-5 -8 -4 -10 3 -5 16 10 15 1 -3 -34 -9 -17 -13 -30 -11
-30 13 0 37 63 28 72 -6 6 -12 5 -17 -3z"/>
<path d="M2060 1798 c-15 -21 -17 -28 -6 -19 16 13 41 51 33 51 -2 0 -14 -15
-27 -32z"/>
<path d="M2191 1780 c-1 -43 27 -156 48 -199 23 -45 78 -111 92 -111 17 0 9
23 -21 56 -42 49 -70 107 -96 199 -12 44 -23 69 -23 55z"/>
<path d="M2091 1727 l-24 -42 27 29 c15 15 26 34 24 42 -2 8 -14 -5 -27 -29z"/>
<path d="M2010 1735 c-13 -14 -22 -27 -19 -29 2 -2 14 10 27 25 29 36 24 38
-8 4z"/>
<path d="M2019 1693 c-13 -16 -12 -17 4 -4 9 7 17 15 17 17 0 8 -8 3 -21 -13z"/>
<path d="M2086 1675 c-9 -26 -7 -32 5 -12 6 10 9 21 6 23 -2 3 -7 -2 -11 -11z"/>
<path d="M2156 1620 c7 -76 30 -165 59 -227 24 -53 65 -103 85 -103 21 0 9 34
-33 90 -41 54 -55 87 -106 260 -9 31 -10 29 -5 -20z"/>
<path d="M2050 1600 c-6 -11 -8 -20 -6 -20 3 0 10 9 16 20 6 11 8 20 6 20 -3
0 -10 -9 -16 -20z"/>
<path d="M1989 1573 c-13 -16 -12 -17 4 -4 9 7 17 15 17 17 0 8 -8 3 -21 -13z"/>
<path d="M2005 1533 c-16 -21 -46 -58 -69 -83 l-41 -45 42 39 c38 36 110 126
100 126 -3 0 -17 -17 -32 -37z"/>
<path d="M1930 1505 c-24 -25 -42 -45 -39 -45 3 0 25 20 49 45 24 25 42 45 39
45 -3 0 -25 -20 -49 -45z"/>
<path d="M2621 2215 c1 -40 1 -40 11 -12 7 21 7 32 -1 40 -8 8 -11 0 -10 -28z"/>
<path d="M2506 2231 c-4 -5 -2 -20 3 -33 9 -21 10 -21 10 10 1 32 -3 39 -13
23z"/>
<path d="M902 2044 c-50 -34 -13 -164 46 -164 33 0 62 27 62 58 0 34 -31 102
-51 112 -24 13 -31 13 -57 -6z"/>
<path d="M1056 1727 c-16 -12 -15 -16 9 -60 30 -54 42 -64 58 -48 8 8 4 25
-13 61 -28 60 -32 63 -54 47z"/>
<path d="M3560 1440 c0 -5 5 -10 11 -10 5 0 7 5 4 10 -3 6 -8 10 -11 10 -2 0
-4 -4 -4 -10z"/>
<path d="M3280 1660 c0 -5 5 -10 11 -10 5 0 7 5 4 10 -3 6 -8 10 -11 10 -2 0
-4 -4 -4 -10z"/>
<path d="M3150 1430 c0 -6 -7 -10 -16 -10 -11 0 -14 -5 -9 -17 4 -10 12 -37
17 -59 9 -41 10 -42 39 -31 31 12 39 27 14 27 -9 0 -21 11 -27 25 -6 14 -15
25 -20 25 -4 0 -8 5 -8 11 0 6 6 9 14 6 8 -3 17 0 20 8 2 7 -2 16 -10 19 -8 3
-14 1 -14 -4z m25 -100 c3 -5 1 -10 -4 -10 -6 0 -11 5 -11 10 0 6 2 10 4 10 3
0 8 -4 11 -10z"/>
<path d="M3842 1405 c0 -16 2 -22 5 -12 2 9 2 23 0 30 -3 6 -5 -1 -5 -18z"/>
<path d="M3100 1391 c0 -12 5 -21 10 -21 6 0 10 6 10 14 0 8 -4 18 -10 21 -5
3 -10 -3 -10 -14z"/>
<path d="M3187 1403 c-12 -11 -8 -23 8 -23 8 0 15 -8 15 -17 0 -15 3 -15 21 4
12 11 18 26 15 32 -8 12 -49 15 -59 4z"/>
<path d="M3116 1334 c-9 -23 -7 -31 7 -37 10 -4 12 3 9 24 -5 33 -7 35 -16 13z"/>
<path d="M3396 1318 c-10 -6 -37 -8 -60 -4 -48 7 -186 -22 -186 -39 0 -21 11
-23 43 -7 20 10 63 17 112 18 44 2 96 7 115 11 32 9 33 10 15 20 -14 8 -26 8
-39 1z"/>
<path d="M3700 1285 c-7 -8 -27 -19 -44 -24 -24 -7 -26 -9 -9 -10 12 -1 35 10
50 24 15 13 25 25 22 25 -4 0 -12 -7 -19 -15z"/>
<path d="M3120 1240 c0 -11 6 -20 14 -20 9 0 12 7 9 20 -3 11 -9 20 -14 20 -5
0 -9 -9 -9 -20z"/>
<path d="M3063 1202 c9 -10 17 -26 17 -36 0 -15 -2 -15 -30 -1 -16 8 -40 15
-53 15 -27 0 -77 -48 -77 -74 0 -14 6 -12 29 13 46 49 75 43 146 -30 54 -55
139 -109 152 -96 2 3 -12 10 -31 17 -20 6 -36 16 -36 21 0 5 -5 9 -10 9 -21 0
-48 36 -55 75 -9 51 -30 91 -52 99 -16 6 -16 6 0 -12z"/>
<path d="M3140 1102 c0 -11 7 -22 15 -26 9 -3 15 0 15 8 0 7 -7 19 -15 26 -12
10 -15 9 -15 -8z"/>
<path d="M2892 1020 c0 -14 2 -19 5 -12 2 6 2 18 0 25 -3 6 -5 1 -5 -13z"/>
<path d="M2950 993 c0 -27 89 -80 116 -69 8 3 16 1 19 -4 7 -12 80 -11 115 1
17 5 6 6 -32 2 -49 -4 -58 -3 -69 15 -10 16 -16 18 -29 10 -24 -15 -67 -2 -96
29 -13 14 -24 22 -24 16z"/>
<path d="M2375 1360 c-3 -5 3 -10 14 -10 12 0 21 5 21 10 0 6 -6 10 -14 10 -8
0 -18 -4 -21 -10z"/>
<path d="M2380 1249 c0 -15 31 -49 60 -64 8 -4 2 7 -15 26 -16 19 -33 38 -37
44 -5 5 -8 2 -8 -6z"/>
<path d="M2370 1172 c0 -11 35 -35 65 -45 16 -6 15 -3 -5 13 -36 30 -60 42
-60 32z"/>
<path d="M2380 1112 c0 -12 50 -46 56 -39 3 3 -9 15 -25 27 -17 12 -31 17 -31
12z"/>
<path d="M2390 1050 c0 -5 10 -15 23 -21 22 -12 22 -12 3 10 -21 23 -26 26
-26 11z"/>
<path d="M2966 1391 c-3 -5 1 -14 8 -20 16 -13 32 2 21 19 -8 12 -22 13 -29 1z"/>
<path d="M1446 1144 l-28 -16 33 -28 c19 -16 37 -29 41 -30 6 0 28 63 28 83 0
12 -43 7 -74 -9z"/>
<path d="M3565 1140 c-3 -5 -1 -10 4 -10 6 0 11 5 11 10 0 6 -2 10 -4 10 -3 0
-8 -4 -11 -10z"/>
<path d="M3479 923 l-24 -28 25 21 c14 12 32 24 40 27 13 5 13 6 -1 6 -8 1
-26 -11 -40 -26z"/>
<path d="M3267 869 c7 -7 15 -10 18 -7 3 3 -2 9 -12 12 -14 6 -15 5 -6 -5z"/>
<path d="M2266 749 c-13 -68 -8 -86 25 -93 90 -18 145 5 137 56 -4 27 -51 53
-114 62 -40 6 -42 5 -48 -25z"/>
</g>
</svg>
